<svg width="219" height="218" viewBox="0 0 219 218" fill="none" xmlns="http://www.w3.org/2000/svg">
<rect width="219" height="218" fill="#E5E5E5"/>
<g id="V1 C" clip-path="url(#clip0_0_1)">
<rect width="1440" height="1024" transform="translate(-822 -697)" fill="white"/>
<g id="Dashboard">
<g id="KPI">
<g id="background">
<g id="Rectangle" filter="url(#filter0_d_0_1)">
<rect x="-20" y="-24" width="258" height="263" rx="5" fill="#FBFBFB"/>
</g>
</g>
<g id="donut">
<path id="Rectangle_2" d="M67.3446 35.5144C26.8384 58.9007 12.96 110.696 36.3462 151.202C59.7324 191.708 111.527 205.586 152.034 182.2C192.54 158.814 206.418 107.019 183.032 66.5128C159.646 26.0066 107.851 12.1282 67.3446 35.5144Z" fill="white" stroke="url(#paint0_angular_0_1)" stroke-width="10"/>
<path id="Oval" fill-rule="evenodd" clip-rule="evenodd" d="M36 155.168C38.7614 155.168 41 152.93 41 150.168C41 147.407 38.7614 145.168 36 145.168C33.2386 145.168 31 147.407 31 150.168C31 152.93 33.2386 155.168 36 155.168Z" fill="#FF0000"/>
<path id="Oval Copy 3" fill-rule="evenodd" clip-rule="evenodd" d="M117 29.6682C119.761 29.6682 122 27.4296 122 24.6682C122 21.9068 119.761 19.6682 117 19.6682C114.239 19.6682 112 21.9068 112 24.6682C112 27.4296 114.239 29.6682 117 29.6682Z" fill="#FF0000"/>
</g>
<g id="12% Legs fat">
<path d="M96.1416 105.168H92.4727V91.0256L88.0928 92.384V89.4006L95.748 86.6584H96.1416V105.168ZM114.829 105.168H102.159V102.655L108.139 96.2815C108.96 95.3844 109.565 94.6015 109.954 93.9329C110.352 93.2642 110.551 92.6295 110.551 92.0286C110.551 91.2076 110.343 90.5644 109.929 90.0989C109.514 89.6249 108.922 89.3879 108.151 89.3879C107.322 89.3879 106.666 89.6757 106.184 90.2512C105.71 90.8183 105.473 91.5673 105.473 92.4983H101.791C101.791 91.3726 102.058 90.3443 102.591 89.4133C103.132 88.4823 103.894 87.7545 104.876 87.2297C105.858 86.6965 106.971 86.4299 108.215 86.4299C110.119 86.4299 111.596 86.887 112.646 87.801C113.703 88.7151 114.232 90.0058 114.232 91.6731C114.232 92.5872 113.995 93.5181 113.521 94.4661C113.048 95.414 112.235 96.5185 111.084 97.7795L106.882 102.21H114.829V105.168ZM117.038 90.2385C117.038 89.1044 117.406 88.1861 118.143 87.4836C118.879 86.7727 119.844 86.4172 121.037 86.4172C122.247 86.4172 123.221 86.7685 123.957 87.4709C124.693 88.165 125.062 89.1086 125.062 90.302V91.2161C125.062 92.3586 124.693 93.2769 123.957 93.9709C123.221 94.665 122.256 95.012 121.062 95.012C119.861 95.012 118.887 94.665 118.143 93.9709C117.406 93.2685 117.038 92.3248 117.038 91.1399V90.2385ZM119.476 91.2161C119.476 91.7239 119.619 92.1344 119.907 92.4475C120.203 92.7522 120.589 92.9045 121.062 92.9045C121.536 92.9045 121.913 92.748 122.192 92.4348C122.472 92.1217 122.611 91.7027 122.611 91.178V90.2385C122.611 89.7307 122.472 89.3202 122.192 89.0071C121.913 88.6939 121.528 88.5374 121.037 88.5374C120.572 88.5374 120.195 88.6939 119.907 89.0071C119.619 89.3118 119.476 89.7392 119.476 90.2893V91.2161ZM125.874 100.636C125.874 99.4934 126.246 98.5751 126.991 97.8811C127.736 97.1786 128.701 96.8274 129.886 96.8274C131.088 96.8274 132.057 97.1744 132.793 97.8684C133.538 98.554 133.91 99.5019 133.91 100.712V101.626C133.91 102.76 133.546 103.679 132.818 104.381C132.09 105.075 131.121 105.422 129.911 105.422C128.692 105.422 127.715 105.071 126.979 104.368C126.242 103.666 125.874 102.735 125.874 101.575V100.636ZM128.312 101.626C128.312 102.092 128.464 102.49 128.769 102.82C129.073 103.15 129.454 103.315 129.911 103.315C130.944 103.315 131.46 102.743 131.46 101.601V100.636C131.46 100.128 131.316 99.7219 131.028 99.4172C130.741 99.1041 130.36 98.9475 129.886 98.9475C129.412 98.9475 129.031 99.1041 128.743 99.4172C128.455 99.7219 128.312 100.141 128.312 100.674V101.626ZM121.786 103.784L119.996 102.82L129.022 88.3723L130.812 89.3372L121.786 103.784Z" fill="#282D30"/>
<path d="M82.1641 126.879C82.1641 125.577 82.4661 124.533 83.0703 123.746C83.6745 122.955 84.4844 122.559 85.5 122.559C86.3958 122.559 87.1198 122.871 87.6719 123.496V119.168H89.5703V131.168H87.8516L87.7578 130.293C87.1901 130.981 86.4323 131.324 85.4844 131.324C84.4948 131.324 83.6927 130.926 83.0781 130.129C82.4688 129.332 82.1641 128.249 82.1641 126.879ZM84.0625 127.043C84.0625 127.903 84.2266 128.574 84.5547 129.059C84.888 129.538 85.3594 129.778 85.9688 129.778C86.7448 129.778 87.3125 129.431 87.6719 128.739V125.129C87.3229 124.452 86.7604 124.114 85.9844 124.114C85.3698 124.114 84.8958 124.358 84.5625 124.848C84.2292 125.332 84.0625 126.064 84.0625 127.043ZM95.2734 131.324C94.0703 131.324 93.0938 130.947 92.3438 130.192C91.599 129.431 91.2266 128.421 91.2266 127.16V126.926C91.2266 126.082 91.388 125.33 91.7109 124.668C92.0391 124.002 92.4974 123.483 93.0859 123.114C93.6745 122.744 94.3307 122.559 95.0547 122.559C96.2057 122.559 97.0938 122.926 97.7188 123.66C98.349 124.395 98.6641 125.434 98.6641 126.778V127.543H93.1406C93.1979 128.241 93.4297 128.793 93.8359 129.199C94.2474 129.606 94.763 129.809 95.3828 129.809C96.2526 129.809 96.9609 129.457 97.5078 128.754L98.5312 129.731C98.1927 130.236 97.7396 130.629 97.1719 130.91C96.6094 131.186 95.9766 131.324 95.2734 131.324ZM95.0469 124.082C94.526 124.082 94.1042 124.265 93.7812 124.629C93.4635 124.994 93.2604 125.502 93.1719 126.153H96.7891V126.012C96.7474 125.377 96.5781 124.897 96.2812 124.574C95.9844 124.246 95.5729 124.082 95.0469 124.082ZM107.109 128.762L108.898 122.715H110.859L107.93 131.168H106.281L103.328 122.715H105.297L107.109 128.762ZM111.57 126.864C111.57 126.035 111.734 125.291 112.062 124.629C112.391 123.962 112.852 123.452 113.445 123.098C114.039 122.739 114.721 122.559 115.492 122.559C116.633 122.559 117.557 122.926 118.266 123.66C118.979 124.395 119.365 125.369 119.422 126.582L119.43 127.028C119.43 127.861 119.268 128.606 118.945 129.262C118.628 129.918 118.169 130.426 117.57 130.785C116.977 131.145 116.289 131.324 115.508 131.324C114.315 131.324 113.359 130.929 112.641 130.137C111.927 129.34 111.57 128.28 111.57 126.957V126.864ZM113.469 127.028C113.469 127.897 113.648 128.58 114.008 129.074C114.367 129.564 114.867 129.809 115.508 129.809C116.148 129.809 116.646 129.559 117 129.059C117.359 128.559 117.539 127.827 117.539 126.864C117.539 126.009 117.354 125.332 116.984 124.832C116.62 124.332 116.122 124.082 115.492 124.082C114.872 124.082 114.38 124.33 114.016 124.824C113.651 125.314 113.469 126.048 113.469 127.028ZM123.414 120.66V122.715H124.906V124.121H123.414V128.84C123.414 129.163 123.477 129.397 123.602 129.543C123.732 129.684 123.961 129.754 124.289 129.754C124.508 129.754 124.729 129.728 124.953 129.676V131.145C124.521 131.265 124.104 131.324 123.703 131.324C122.245 131.324 121.516 130.52 121.516 128.91V124.121H120.125V122.715H121.516V120.66H123.414ZM130.789 124.449C130.539 124.408 130.281 124.387 130.016 124.387C129.146 124.387 128.56 124.72 128.258 125.387V131.168H126.359V122.715H128.172L128.219 123.66C128.677 122.926 129.312 122.559 130.125 122.559C130.396 122.559 130.62 122.595 130.797 122.668L130.789 124.449ZM135.555 131.324C134.352 131.324 133.375 130.947 132.625 130.192C131.88 129.431 131.508 128.421 131.508 127.16V126.926C131.508 126.082 131.669 125.33 131.992 124.668C132.32 124.002 132.779 123.483 133.367 123.114C133.956 122.744 134.612 122.559 135.336 122.559C136.487 122.559 137.375 122.926 138 123.66C138.63 124.395 138.945 125.434 138.945 126.778V127.543H133.422C133.479 128.241 133.711 128.793 134.117 129.199C134.529 129.606 135.044 129.809 135.664 129.809C136.534 129.809 137.242 129.457 137.789 128.754L138.812 129.731C138.474 130.236 138.021 130.629 137.453 130.91C136.891 131.186 136.258 131.324 135.555 131.324ZM135.328 124.082C134.807 124.082 134.385 124.265 134.062 124.629C133.745 124.994 133.542 125.502 133.453 126.153H137.07V126.012C137.029 125.377 136.859 124.897 136.562 124.574C136.266 124.246 135.854 124.082 135.328 124.082ZM84.0156 152.864C84.0156 152.035 84.1797 151.291 84.5078 150.629C84.8359 149.962 85.2969 149.452 85.8906 149.098C86.4844 148.739 87.1667 148.559 87.9375 148.559C89.0781 148.559 90.0026 148.926 90.7109 149.66C91.4245 150.395 91.8099 151.369 91.8672 152.582L91.875 153.028C91.875 153.861 91.7135 154.606 91.3906 155.262C91.0729 155.918 90.6146 156.426 90.0156 156.785C89.4219 157.145 88.7344 157.324 87.9531 157.324C86.7604 157.324 85.8047 156.929 85.0859 156.137C84.3724 155.34 84.0156 154.28 84.0156 152.957V152.864ZM85.9141 153.028C85.9141 153.897 86.0938 154.58 86.4531 155.074C86.8125 155.564 87.3125 155.809 87.9531 155.809C88.5938 155.809 89.0911 155.559 89.4453 155.059C89.8047 154.559 89.9844 153.827 89.9844 152.864C89.9844 152.009 89.7995 151.332 89.4297 150.832C89.0651 150.332 88.5677 150.082 87.9375 150.082C87.3177 150.082 86.8255 150.33 86.4609 150.824C86.0964 151.314 85.9141 152.048 85.9141 153.028ZM100.898 153.028C100.898 154.34 100.604 155.384 100.016 156.16C99.4323 156.936 98.6276 157.324 97.6016 157.324C96.612 157.324 95.8411 156.968 95.2891 156.254L95.1953 157.168H93.4766V145.168H95.375V149.528C95.9219 148.882 96.6589 148.559 97.5859 148.559C98.6172 148.559 99.4271 148.942 100.016 149.707C100.604 150.473 100.898 151.543 100.898 152.918V153.028ZM99 152.864C99 151.947 98.8385 151.259 98.5156 150.801C98.1927 150.343 97.724 150.114 97.1094 150.114C96.2865 150.114 95.7083 150.473 95.375 151.192V154.676C95.7135 155.41 96.2969 155.778 97.125 155.778C97.7188 155.778 98.1771 155.556 98.5 155.114C98.8229 154.671 98.9896 154.002 99 153.106V152.864ZM104.477 148.715V157.918C104.477 158.783 104.26 159.442 103.828 159.895C103.401 160.353 102.773 160.582 101.945 160.582C101.596 160.582 101.26 160.538 100.938 160.449V158.949C101.135 158.996 101.359 159.02 101.609 159.02C102.24 159.02 102.562 158.676 102.578 157.989V148.715H104.477ZM102.414 146.52C102.414 146.228 102.505 145.986 102.688 145.793C102.875 145.601 103.141 145.504 103.484 145.504C103.828 145.504 104.094 145.601 104.281 145.793C104.469 145.986 104.562 146.228 104.562 146.52C104.562 146.806 104.469 147.046 104.281 147.239C104.094 147.426 103.828 147.52 103.484 147.52C103.141 147.52 102.875 147.426 102.688 147.239C102.505 147.046 102.414 146.806 102.414 146.52ZM110.234 157.324C109.031 157.324 108.055 156.947 107.305 156.192C106.56 155.431 106.188 154.421 106.188 153.16V152.926C106.188 152.082 106.349 151.33 106.672 150.668C107 150.002 107.458 149.483 108.047 149.114C108.635 148.744 109.292 148.559 110.016 148.559C111.167 148.559 112.055 148.926 112.68 149.66C113.31 150.395 113.625 151.434 113.625 152.778V153.543H108.102C108.159 154.241 108.391 154.793 108.797 155.199C109.208 155.606 109.724 155.809 110.344 155.809C111.214 155.809 111.922 155.457 112.469 154.754L113.492 155.731C113.154 156.236 112.701 156.629 112.133 156.91C111.57 157.186 110.938 157.324 110.234 157.324ZM110.008 150.082C109.487 150.082 109.065 150.265 108.742 150.629C108.424 150.994 108.221 151.502 108.133 152.153H111.75V152.012C111.708 151.377 111.539 150.897 111.242 150.574C110.945 150.246 110.534 150.082 110.008 150.082ZM118.578 155.809C119.052 155.809 119.445 155.671 119.758 155.395C120.07 155.119 120.237 154.778 120.258 154.371H122.047C122.026 154.897 121.862 155.39 121.555 155.848C121.247 156.301 120.831 156.66 120.305 156.926C119.779 157.192 119.211 157.324 118.602 157.324C117.419 157.324 116.482 156.942 115.789 156.176C115.096 155.41 114.75 154.353 114.75 153.004V152.809C114.75 151.522 115.094 150.494 115.781 149.723C116.469 148.947 117.406 148.559 118.594 148.559C119.599 148.559 120.417 148.853 121.047 149.442C121.682 150.025 122.016 150.793 122.047 151.746H120.258C120.237 151.262 120.07 150.864 119.758 150.551C119.451 150.239 119.057 150.082 118.578 150.082C117.964 150.082 117.49 150.306 117.156 150.754C116.823 151.197 116.654 151.871 116.648 152.778V153.082C116.648 153.999 116.812 154.684 117.141 155.137C117.474 155.585 117.953 155.809 118.578 155.809ZM125.859 146.66V148.715H127.352V150.121H125.859V154.84C125.859 155.163 125.922 155.397 126.047 155.543C126.177 155.684 126.406 155.754 126.734 155.754C126.953 155.754 127.174 155.728 127.398 155.676V157.145C126.966 157.265 126.549 157.324 126.148 157.324C124.69 157.324 123.961 156.52 123.961 154.91V150.121H122.57V148.715H123.961V146.66H125.859ZM130.828 157.168H128.93V148.715H130.828V157.168ZM128.812 146.52C128.812 146.228 128.904 145.986 129.086 145.793C129.273 145.601 129.539 145.504 129.883 145.504C130.227 145.504 130.492 145.601 130.68 145.793C130.867 145.986 130.961 146.228 130.961 146.52C130.961 146.806 130.867 147.046 130.68 147.239C130.492 147.426 130.227 147.52 129.883 147.52C129.539 147.52 129.273 147.426 129.086 147.239C128.904 147.046 128.812 146.806 128.812 146.52ZM133.57 157.168V150.121H132.281V148.715H133.57V147.942C133.57 147.004 133.831 146.28 134.352 145.77C134.872 145.259 135.602 145.004 136.539 145.004C136.872 145.004 137.227 145.051 137.602 145.145L137.555 146.629C137.346 146.587 137.104 146.567 136.828 146.567C135.922 146.567 135.469 147.033 135.469 147.965V148.715H137.188V150.121H135.469V157.168H133.57Z" fill="#74798C"/>
</g>
<path id="Kpi" d="M16.6577 14.2534C16.6577 13.7847 16.4917 13.4233 16.1597 13.1694C15.8325 12.9155 15.2393 12.6592 14.3799 12.4004C13.5205 12.1416 12.8369 11.8535 12.3291 11.5361C11.3574 10.9258 10.8716 10.1299 10.8716 9.14844C10.8716 8.28906 11.2207 7.58105 11.9189 7.02441C12.6221 6.46777 13.5327 6.18945 14.6509 6.18945C15.3931 6.18945 16.0547 6.32617 16.6357 6.59961C17.2168 6.87305 17.6733 7.26367 18.0054 7.77148C18.3374 8.27441 18.5034 8.8335 18.5034 9.44873H16.6577C16.6577 8.89209 16.4819 8.45752 16.1304 8.14502C15.7837 7.82764 15.2856 7.66895 14.6362 7.66895C14.0308 7.66895 13.5596 7.79834 13.2227 8.05713C12.8906 8.31592 12.7246 8.67725 12.7246 9.14111C12.7246 9.53174 12.9053 9.85889 13.2666 10.1226C13.6279 10.3813 14.2236 10.6353 15.0537 10.8843C15.8838 11.1284 16.5503 11.4092 17.0532 11.7266C17.5562 12.0391 17.9248 12.4004 18.1592 12.8105C18.3936 13.2158 18.5107 13.6919 18.5107 14.2388C18.5107 15.1274 18.1689 15.8354 17.4854 16.3628C16.8066 16.8853 15.8838 17.1465 14.7168 17.1465C13.9453 17.1465 13.2349 17.0049 12.5854 16.7217C11.9409 16.4336 11.438 16.0381 11.0767 15.5352C10.7202 15.0322 10.542 14.4463 10.542 13.7773H12.395C12.395 14.3828 12.5952 14.8516 12.9956 15.1836C13.396 15.5156 13.9697 15.6816 14.7168 15.6816C15.3613 15.6816 15.8447 15.5522 16.167 15.2935C16.4941 15.0298 16.6577 14.6831 16.6577 14.2534ZM23.2202 15.7256C23.6646 15.7256 24.0332 15.5962 24.3262 15.3374C24.6191 15.0786 24.7754 14.7588 24.7949 14.3779H26.4722C26.4526 14.8711 26.2988 15.3325 26.0107 15.7622C25.7227 16.187 25.332 16.5239 24.8389 16.7729C24.3457 17.022 23.8135 17.1465 23.2422 17.1465C22.1338 17.1465 21.2549 16.7876 20.6055 16.0698C19.9561 15.3521 19.6313 14.3608 19.6313 13.0962V12.9131C19.6313 11.707 19.9536 10.7427 20.5981 10.02C21.2427 9.29248 22.1216 8.92871 23.2349 8.92871C24.1772 8.92871 24.9438 9.20459 25.5347 9.75635C26.1304 10.3032 26.4429 11.0234 26.4722 11.917H24.7949C24.7754 11.4629 24.6191 11.0894 24.3262 10.7964C24.0381 10.5034 23.6694 10.3569 23.2202 10.3569C22.644 10.3569 22.1997 10.5669 21.8872 10.9868C21.5747 11.4019 21.416 12.0342 21.4111 12.8838V13.1694C21.4111 14.0288 21.5649 14.6709 21.8726 15.0957C22.1851 15.5156 22.6343 15.7256 23.2202 15.7256ZM27.4829 12.9644C27.4829 12.188 27.6367 11.4897 27.9443 10.8696C28.252 10.2446 28.6841 9.76611 29.2407 9.43408C29.7974 9.09717 30.437 8.92871 31.1597 8.92871C32.229 8.92871 33.0957 9.27295 33.7598 9.96143C34.4287 10.6499 34.79 11.563 34.8438 12.7007L34.8511 13.1182C34.8511 13.8994 34.6997 14.5977 34.397 15.2129C34.0991 15.8281 33.6694 16.3042 33.1079 16.6411C32.5513 16.978 31.9067 17.1465 31.1743 17.1465C30.0562 17.1465 29.1602 16.7754 28.4863 16.0332C27.8174 15.2861 27.4829 14.2925 27.4829 13.0522V12.9644ZM29.2627 13.1182C29.2627 13.9336 29.4312 14.5732 29.7681 15.0371C30.105 15.4961 30.5737 15.7256 31.1743 15.7256C31.7749 15.7256 32.2412 15.4912 32.5732 15.0225C32.9102 14.5537 33.0786 13.8677 33.0786 12.9644C33.0786 12.1636 32.9053 11.5288 32.5586 11.0601C32.2168 10.5913 31.7505 10.3569 31.1597 10.3569C30.5786 10.3569 30.1172 10.5889 29.7754 11.0527C29.4336 11.5117 29.2627 12.2002 29.2627 13.1182ZM40.5054 10.7012C40.271 10.6621 40.0293 10.6426 39.7803 10.6426C38.9648 10.6426 38.4155 10.9551 38.1323 11.5801V17H36.3525V9.0752H38.0518L38.0957 9.96143C38.5254 9.27295 39.1211 8.92871 39.8828 8.92871C40.1367 8.92871 40.3467 8.96289 40.5127 9.03125L40.5054 10.7012ZM44.9731 17.1465C43.8452 17.1465 42.9297 16.7925 42.2266 16.0845C41.5283 15.3716 41.1792 14.4243 41.1792 13.2427V13.0229C41.1792 12.2319 41.3306 11.5264 41.6333 10.9062C41.9409 10.2812 42.3706 9.79541 42.9224 9.44873C43.4741 9.10205 44.0894 8.92871 44.7681 8.92871C45.8472 8.92871 46.6797 9.27295 47.2656 9.96143C47.8564 10.6499 48.1519 11.624 48.1519 12.8838V13.6016H42.9736C43.0273 14.2559 43.2446 14.7734 43.6255 15.1543C44.0112 15.5352 44.4946 15.7256 45.0757 15.7256C45.8911 15.7256 46.5552 15.396 47.0679 14.7368L48.0273 15.6523C47.71 16.126 47.2852 16.4946 46.7529 16.7583C46.2256 17.0171 45.6323 17.1465 44.9731 17.1465ZM44.7607 10.3569C44.2725 10.3569 43.877 10.5278 43.5742 10.8696C43.2764 11.2114 43.0859 11.6875 43.0029 12.2979H46.394V12.166C46.355 11.5703 46.1963 11.1211 45.918 10.8184C45.6396 10.5107 45.2539 10.3569 44.7607 10.3569Z" fill="#20253A"/>
</g>
</g>
<g id="Nav">
</g>
</g>
<defs>
<filter id="filter0_d_0_1" x="-24" y="-26" width="266" height="271" filterUnits="userSpaceOnUse" color-interpolation-filters="sRGB">
<feFlood flood-opacity="0" result="BackgroundImageFix"/>
<feColorMatrix in="SourceAlpha" type="matrix" values="0 0 0 0 0 0 0 0 0 0 0 0 0 0 0 0 0 0 127 0" result="hardAlpha"/>
<feOffset dy="2"/>
<feGaussianBlur stdDeviation="2"/>
<feColorMatrix type="matrix" values="0 0 0 0 0 0 0 0 0 0 0 0 0 0 0 0 0 0 0.0212249 0"/>
<feBlend mode="normal" in2="BackgroundImageFix" result="effect1_dropShadow_0_1"/>
<feBlend mode="normal" in="SourceGraphic" in2="effect1_dropShadow_0_1" result="shape"/>
</filter>
<radialGradient id="paint0_angular_0_1" cx="0" cy="0" r="1" gradientUnits="userSpaceOnUse" gradientTransform="translate(109.689 108.857) rotate(-30) scale(79.6891)">
<stop offset="0.502628" stop-color="#FBFBFB"/>
<stop offset="0.502728" stop-color="#FF0000"/>
<stop offset="0.845963" stop-color="#FF0000"/>
<stop offset="0.846063" stop-color="#FBFBFB"/>
</radialGradient>
<clipPath id="clip0_0_1">
<rect width="1440" height="1024" fill="white" transform="translate(-822 -697)"/>
</clipPath>
</defs>
</svg>
